<svg width="171" height="85" viewBox="0 0 171 85" fill="none" xmlns="http://www.w3.org/2000/svg">
<path d="M129.008 39.471C129.008 39.471 130.965 28.4898 130.485 17.4687C130.485 17.4687 136.636 14.1145 130.565 9.08308C130.565 9.08308 122.578 -3.37554 107.481 0.937061C107.481 0.937061 100.692 2.77394 95.7397 6.28791C95.7397 6.28791 91.2666 6.76707 84.3974 4.85035C84.3974 4.85035 76.0904 2.93365 74.4929 8.52406C74.4929 8.52406 74.3332 10.92 72.7357 11.5589C72.7357 11.5589 68.1029 14.9131 73.8539 15.552C73.8539 15.552 85.6754 14.5537 88.2314 19.605C88.2314 19.605 94.1754 28.7693 93.796 34.779C93.796 34.779 98.8348 33.2084 101.071 33.5212L99.3341 25.0557C99.3341 25.0557 115.948 21.7015 122.019 28.6495C122.019 28.6495 123.297 34.1468 122.638 36.6758C122.638 36.6758 128.255 38.506 129.008 39.471Z" fill="url(#paint0_linear_107_5)"/>
<path d="M0.848145 84.0745C0.854801 84.0745 170.503 84.0745 170.503 84.0745C170.503 84.0745 150.374 40.629 113.632 33.9205C103.794 32.1236 93.7094 33.3681 84.6702 37.6807C75.6244 42 67.8233 51.6235 56.7606 49.2542C35.9865 44.8018 18.3208 62.0522 6.22637 76.5607C5.5208 77.4059 1.46052 84.0745 0.848145 84.0745Z" fill="url(#paint1_linear_107_5)"/>
<defs>
<linearGradient id="paint0_linear_107_5" x1="102.088" y1="4.49822" x2="102.147" y2="34.6807" gradientUnits="userSpaceOnUse">
<stop offset="0.0181" stop-color="#F9FFFF"/>
<stop offset="1" stop-color="#A2B4ED"/>
</linearGradient>
<linearGradient id="paint1_linear_107_5" x1="86.066" y1="35.5136" x2="85.7029" y2="80.6746" gradientUnits="userSpaceOnUse">
<stop stop-color="#FDFEF1"/>
<stop offset="1" stop-color="#417FD8"/>
</linearGradient>
</defs>
</svg>
