<svg width="206" height="153" viewBox="0 0 206 153" fill="none" xmlns="http://www.w3.org/2000/svg">
<path d="M140.147 23.0345C140.147 23.0345 146.663 38.3482 163.051 36.6045L166.925 35.553L169.561 28.6648L171.118 24.1126L167.883 21.3573L156.381 20.8781L146.557 21.7766L140.147 23.0345Z" fill="#7B90DE"/>
<path d="M179.086 62.3271C179.086 62.3271 179.052 58.9063 180.164 49.9882C180.164 49.9882 181.722 45.3163 179.445 41.962C179.445 41.962 176.53 37.4497 170.339 36.3716V28.1856L174.054 24.8314L187.952 31.4201L191.906 40.2849L190.108 47.8319L184.717 56.3373L179.086 62.3271Z" fill="#7B90DE"/>
<path d="M140.147 23.0345C140.147 23.0345 144.939 7.94035 165.307 5.54446C166.765 5.58439 168.223 5.55778 169.68 5.51785C172.909 5.43133 176.137 5.20505 179.339 4.7658C181.083 4.52622 182.82 4.22007 184.537 3.80079C185.349 3.60113 186.148 3.37483 186.94 3.11527C187.932 2.78917 188.857 2.31 189.836 1.924C190.182 1.78424 190.541 1.65778 190.894 1.54465C192.857 0.932362 195.007 0.672817 197.064 0.639541C199.048 0.606265 201.118 0.839182 202.928 1.70436L205.005 2.42314C204.785 2.34994 204.166 2.62947 203.96 2.68271C203.088 2.90899 202.216 3.16855 201.358 3.44142C199.141 4.16018 196.885 5.00537 194.948 6.32311C193.55 7.26816 191.486 9.34461 192.957 11.1216C193.051 11.228 193.15 11.3279 193.25 11.4343C195.061 13.2845 196.445 15.6006 197.477 17.9632C198.875 21.1644 199.62 24.6317 199.8 28.1124C199.88 29.6099 199.853 31.1139 199.74 32.6114C199.74 32.6114 198.941 44.7506 189.037 53.8549C189.037 53.8549 182.327 58.9662 188.717 64.3968C188.717 64.3968 192.232 67.9108 191.912 72.5429C191.912 72.5429 185.842 73.0221 182.807 67.2719C182.807 67.2719 179.931 72.2434 173.381 72.5495C173.095 72.5628 173.92 68.0506 173.994 67.7977C174.453 66.2603 175.152 64.7962 176.09 63.4917C176.623 62.7463 177.242 61.9743 177.941 61.3754C178.633 60.7697 179.319 60.3305 179.758 59.4853C180.297 58.4537 180.404 57.2624 180.59 56.111C180.803 54.7467 181.302 53.7951 182.021 52.6503C183.04 51.0198 184.391 49.6555 186.015 48.6239C187.985 47.3794 189.729 46.2413 190.242 43.8122C190.701 41.6359 190.168 39.1601 188.564 37.5562C186.787 35.6195 184.77 33.836 182.66 32.272C180.816 30.9076 178.819 29.5633 176.576 28.9576C175.618 28.6981 174.606 28.5916 173.628 28.8112C173.142 28.9177 172.676 29.1107 172.25 29.3769C171.817 29.6498 171.151 30.0291 171.052 30.5815C170.972 31.0341 171.291 31.48 171.398 31.9059C171.571 32.6047 171.691 33.3168 171.764 34.0289C171.897 35.3866 171.857 36.7642 171.617 38.1086C171.358 39.5927 170.819 41.0236 169.967 42.2748C169.494 42.9736 168.922 43.6059 168.289 44.1649C168.063 44.3646 166.266 45.8753 166.033 45.7023C166.033 45.7023 158.205 39.1535 166.991 29.8894C166.991 29.8894 171.784 25.7365 167.151 25.8962C167.144 25.9095 142.543 28.6249 140.147 23.0345Z" fill="#09034F"/>
<path d="M156.381 21.7167C156.381 21.7167 153.386 20.2792 156.381 18.4823C157.413 17.8633 158.964 17.677 160.115 17.5572C161.32 17.4374 162.545 17.484 163.73 17.7702C165.234 18.1296 168.602 19.6403 166.179 21.4838C165.773 21.79 165.281 21.9563 164.788 22.0894C162.072 22.8148 158.997 22.8082 156.381 21.7167Z" fill="#7B90DE"/>
<path d="M56.9169 69.8342C56.9169 69.8342 61.0836 78.3196 54.6005 89.2808C54.6005 89.2808 47.6514 100.661 42.8589 102.338L37.2277 97.3071L38.4258 91.1975L41.5409 79.7372L50.5268 72.6294L56.9169 69.8342Z" fill="#7B90DE"/>
<path d="M41.6608 106.631C41.6608 106.631 40.2097 124.161 42.2532 128.826L41.7073 131.568L33.5135 128.813L28.741 121.386L31.956 110.89L37.2277 103.297L41.6608 106.631Z" fill="#7B90DE"/>
<path d="M56.9169 69.8342C56.8703 69.5414 53.2094 69.2885 52.9298 69.2619C49.6683 68.9491 46.3667 68.9624 43.1184 69.395C36.7218 70.2469 30.0323 72.9955 26.5777 78.7523C23.2096 84.356 20.1943 90.2459 14.2636 93.6334C14.2636 93.6334 2.28234 100.981 0.525085 108.967C2.72165 107.636 5.01805 106.451 7.34774 105.38C9.23812 104.515 11.1285 103.603 13.1387 103.031C14.4234 102.665 18.5036 101.547 19.0162 103.47C19.2691 104.428 19.0694 105.706 19.1227 106.704C19.1826 107.842 19.2757 108.98 19.4155 110.118C19.6951 112.388 20.1345 114.637 20.8001 116.827C22.1047 121.133 24.2946 125.193 27.5429 128.347C29.2202 129.971 31.1572 131.302 33.2739 132.28C33.2739 132.28 40.4626 133.399 42.3796 137.551C42.3796 137.551 43.1784 148.573 51.0061 152.725C51.0061 152.725 52.2841 148.093 49.0891 142.024C50.66 142.024 52.2908 141.837 53.8084 141.425C54.5406 141.225 56.2979 140.806 56.6706 140.041C57.2164 138.922 54.9998 137.212 54.1079 136.546C51.8248 134.823 48.956 134.656 46.6463 133.186C44.716 131.954 43.8174 129.612 41.7606 128.527C40.6024 127.921 39.3843 127.356 38.0863 127.216C36.3224 127.023 34.0194 127.715 32.6681 126.224C30.0722 123.362 31.1905 119.416 32.6881 116.315C34.2923 112.98 36.4489 107.49 40.6157 106.778C41.4544 106.631 42.3064 106.691 43.1584 106.644C44.5163 106.565 45.7277 105.899 46.9259 105.3C48.6898 104.428 50.9129 103.104 51.3655 101.021C51.3655 101.021 49.2489 99.0641 43.9771 101.3C43.9771 101.3 40.4626 87.4041 47.0124 82.9318C47.0124 82.9318 57.7157 75.1052 56.9169 69.8342Z" fill="#09034F"/>
<path d="M40.7089 80.3428C40.9818 75.5511 36.8283 76.5427 36.8283 76.5427C36.8283 76.5427 32.2022 78.4394 31.5433 85.2943C31.5433 85.2943 31.7296 91.4038 36.136 89.2608C36.136 89.2608 40.376 86.2061 40.7089 80.3428Z" fill="#7B90DE"/>
</svg>
