<svg width="59" height="84" viewBox="0 0 59 84" fill="none" xmlns="http://www.w3.org/2000/svg">
<path d="M56.9169 0.834167C56.9169 0.834167 61.0836 9.31963 54.6005 20.2808C54.6005 20.2808 47.6514 31.6613 42.8589 33.3384L37.2277 28.3071L38.4258 22.1975L41.5409 10.7372L50.5268 3.62938L56.9169 0.834167Z" fill="#7B90DE"/>
<path d="M41.6608 37.6311C41.6608 37.6311 40.2097 55.161 42.2532 59.8263L41.7073 62.5683L33.5135 59.8131L28.741 52.3858L31.956 41.8904L37.2277 34.2968L41.6608 37.6311Z" fill="#7B90DE"/>
<path d="M56.9169 0.834217C56.8703 0.541386 53.2094 0.288497 52.9298 0.261876C49.6683 -0.0509212 46.3667 -0.0376026 43.1184 0.394989C36.7218 1.24686 30.0323 3.99548 26.5777 9.75227C23.2096 15.356 20.1943 21.2459 14.2636 24.6334C14.2636 24.6334 2.28234 31.9808 0.525085 39.9671C2.72165 38.6361 5.01805 37.4514 7.34774 36.3799C9.23812 35.5148 11.1285 34.603 13.1387 34.0306C14.4234 33.6646 18.5036 32.5465 19.0162 34.4699C19.2691 35.4282 19.0694 36.706 19.1227 37.7043C19.1826 38.8424 19.2757 39.9804 19.4155 41.1185C19.6951 43.3879 20.1345 45.6374 20.8001 47.827C22.1047 52.1329 24.2946 56.1926 27.5429 59.3472C29.2202 60.9711 31.1572 62.3021 33.2739 63.2805C33.2739 63.2805 40.4626 64.3985 42.3796 68.5514C42.3796 68.5514 43.1784 79.5725 51.0061 83.7254C51.0061 83.7254 52.2841 79.0933 49.0891 73.0238C50.66 73.0238 52.2908 72.8374 53.8084 72.4248C54.5406 72.2251 56.2979 71.8059 56.6706 71.0405C57.2164 69.9224 54.9998 68.212 54.1079 67.5465C51.8248 65.8228 48.956 65.6564 46.6463 64.1856C44.716 62.9543 43.8174 60.6117 41.7606 59.5269C40.6024 58.9213 39.3843 58.3556 38.0863 58.2158C36.3224 58.0228 34.0194 58.715 32.6681 57.2242C30.0722 54.3624 31.1905 50.4159 32.6881 47.3145C34.2923 43.9802 36.4489 38.4896 40.6157 37.7775C41.4544 37.6311 42.3064 37.691 43.1584 37.6445C44.5163 37.5646 45.7277 36.8991 46.9259 36.3001C48.6898 35.4282 50.9129 34.1039 51.3655 32.0208C51.3655 32.0208 49.2489 30.0641 43.9771 32.3003C43.9771 32.3003 40.4626 18.4041 47.0124 13.9318C47.0124 13.9318 57.7156 6.10518 56.9169 0.834217Z" fill="#09034F"/>
<path d="M40.7089 11.3428C40.9818 6.55106 36.8283 7.54267 36.8283 7.54267C36.8283 7.54267 32.2022 9.43944 31.5433 16.2943C31.5433 16.2943 31.7296 22.4038 36.136 20.2608C36.136 20.2608 40.376 17.2061 40.7089 11.3428Z" fill="#7B90DE"/>
</svg>
