<svg width="66" height="73" viewBox="0 0 66 73" fill="none" xmlns="http://www.w3.org/2000/svg">
<path d="M0.146606 23.0345C0.146606 23.0345 6.6631 38.3482 23.0508 36.6045L26.9247 35.553L29.5606 28.6648L31.1182 24.1126L27.8832 21.3573L16.3812 20.8781L6.55658 21.7766L0.146606 23.0345Z" fill="#7B90DE"/>
<path d="M39.0857 62.3271C39.0857 62.3271 39.0524 58.9063 40.164 49.9882C40.164 49.9882 41.7216 45.3163 39.4451 41.962C39.4451 41.962 36.5297 37.4497 30.3394 36.3716V28.1856L34.0536 24.8314L47.9518 31.4201L51.9056 40.2849L50.1085 47.8319L44.7169 56.3373L39.0857 62.3271Z" fill="#7B90DE"/>
<path d="M0.146606 23.0345C0.146606 23.0345 4.93914 7.94035 25.3073 5.54446C26.765 5.58439 28.2227 5.55778 29.6804 5.51785C32.9087 5.43133 36.137 5.20505 39.3386 4.7658C41.0826 4.52622 42.8199 4.22007 44.5372 3.80079C45.3492 3.60113 46.148 3.37483 46.9401 3.11527C47.9319 2.78917 48.8571 2.31 49.8355 1.924C50.1817 1.78424 50.5411 1.65778 50.8939 1.54465C52.8574 0.932362 55.0074 0.672817 57.0642 0.639541C59.0478 0.606265 61.1179 0.839182 62.9284 1.70436L65.0051 2.42314C64.7855 2.34994 64.1664 2.62947 63.9601 2.68271C63.0881 2.90899 62.2162 3.16855 61.3575 3.44142C59.141 4.16018 56.8845 5.00537 54.9476 6.32311C53.5498 7.26816 51.4863 9.34461 52.9574 11.1216C53.0505 11.228 53.1503 11.3279 53.2502 11.4343C55.0607 13.2845 56.4452 15.6006 57.4769 17.9632C58.8747 21.1644 59.6202 24.6317 59.7999 28.1124C59.8798 29.6099 59.8532 31.1139 59.74 32.6114C59.74 32.6114 58.9413 44.7506 49.0368 53.8549C49.0368 53.8549 42.3273 58.9662 48.7173 64.3968C48.7173 64.3968 52.2318 67.9108 51.9123 72.5429C51.9123 72.5429 45.8418 73.022 42.8066 67.2719C42.8066 67.2719 39.931 72.2434 33.3813 72.5495C33.0951 72.5628 33.9204 68.0506 33.9936 67.7977C34.4529 66.2603 35.1518 64.7962 36.0904 63.4917C36.6229 62.7463 37.2419 61.9743 37.9408 61.3754C38.6331 60.7697 39.3186 60.3305 39.758 59.4853C40.2971 58.4537 40.4036 57.2624 40.59 56.111C40.803 54.7467 41.3022 53.7951 42.0211 52.6503C43.0395 51.0198 44.3907 49.6555 46.0149 48.6239C47.9851 47.3794 49.729 46.2413 50.2416 43.8122C50.7008 41.6359 50.1683 39.1601 48.5642 37.5562C46.7869 35.6195 44.7701 33.836 42.6601 32.272C40.8163 30.9076 38.8194 29.5633 36.5763 28.9576C35.6178 28.6981 34.606 28.5916 33.6276 28.8112C33.1417 28.9177 32.6757 29.1107 32.2497 29.3769C31.817 29.6498 31.1515 30.0291 31.0516 30.5815C30.9717 31.0341 31.2913 31.48 31.3978 31.9059C31.5708 32.6047 31.6906 33.3168 31.7638 34.0289C31.8969 35.3866 31.857 36.7642 31.6174 38.1086C31.3578 39.5927 30.8186 41.0236 29.9666 42.2748C29.494 42.9736 28.9216 43.6059 28.2893 44.1649C28.0629 44.3646 26.2657 45.8753 26.0328 45.7023C26.0328 45.7023 18.2051 39.1535 26.9913 29.8894C26.9913 29.8894 31.7838 25.7365 27.1511 25.8962C27.1444 25.9095 2.54286 28.6249 0.146606 23.0345Z" fill="#09034F"/>
<path d="M16.3812 21.7167C16.3812 21.7167 13.3859 20.2792 16.3812 18.4823C17.4129 17.8633 18.9638 17.677 20.1153 17.5572C21.3201 17.4374 22.5449 17.484 23.7297 17.7702C25.234 18.1296 28.602 19.6403 26.1792 21.4838C25.7731 21.79 25.2806 21.9563 24.788 22.0894C22.0723 22.8148 18.9971 22.8082 16.3812 21.7167Z" fill="#7B90DE"/>
</svg>
