<svg width="400" height="223" viewBox="0 0 400 223" fill="none" xmlns="http://www.w3.org/2000/svg">
<path d="M117.203 0.727631L180.943 124.515L206.344 0.727631H117.203Z" fill="url(#paint0_linear_107_4)"/>
<path d="M206.463 0.727631H399.601L214.251 222.747L181.063 124.515L206.463 0.727631Z" fill="url(#paint1_linear_107_4)"/>
<path d="M0.266113 0.727631L108.577 109.98L117.203 0.727631H0.266113Z" fill="url(#paint2_linear_107_4)"/>
<path d="M117.203 0.727631L181.063 124.515L195.088 166.017L111.658 70.9472L117.203 0.727631Z" fill="url(#paint3_linear_107_4)"/>
<path d="M111.785 70.9472L108.703 109.98L214.378 222.747L195.214 166.017L111.785 70.9472Z" fill="url(#paint4_linear_107_4)"/>
<defs>
<linearGradient id="paint0_linear_107_4" x1="161.8" y1="14.5984" x2="161.985" y2="109.35" gradientUnits="userSpaceOnUse">
<stop offset="0.00194762" stop-color="#1D46AD"/>
<stop offset="1" stop-color="#1042A8"/>
</linearGradient>
<linearGradient id="paint1_linear_107_4" x1="290.26" y1="25.5749" x2="290.591" y2="195.357" gradientUnits="userSpaceOnUse">
<stop offset="0.00194762" stop-color="#235AA9"/>
<stop offset="1" stop-color="#0F43B0"/>
</linearGradient>
<linearGradient id="paint2_linear_107_4" x1="58.7584" y1="12.9439" x2="58.9214" y2="96.6471" gradientUnits="userSpaceOnUse">
<stop offset="0.00194762" stop-color="#0F369C"/>
<stop offset="1" stop-color="#1135A5"/>
</linearGradient>
<linearGradient id="paint3_linear_107_4" x1="153.179" y1="19.2933" x2="153.425" y2="145.801" gradientUnits="userSpaceOnUse">
<stop offset="0.00194762" stop-color="#0F369C"/>
<stop offset="1" stop-color="#1135A5"/>
</linearGradient>
<linearGradient id="paint4_linear_107_4" x1="124.887" y1="87.2228" x2="190.421" y2="210.183" gradientUnits="userSpaceOnUse">
<stop offset="0.00194762" stop-color="#08289C"/>
<stop offset="1" stop-color="#0539AA"/>
</linearGradient>
</defs>
</svg>
