<svg width="91" height="31" viewBox="0 0 91 31" fill="none" xmlns="http://www.w3.org/2000/svg">
<circle cx="15.5" cy="15.5" r="15.5" fill="#1348AF"/>
<path d="M14.24 22.27C13.94 22.27 13.69 22.23 13.49 22.15C13.2967 22.07 13.1333 21.9767 13 21.87C12.8733 21.7633 12.7633 21.67 12.67 21.59C12.5833 21.51 12.5 21.47 12.42 21.47C12.2733 21.47 12.2 21.6467 12.2 22H11.65V18.95H12.27C12.2833 19.1433 12.32 19.36 12.38 19.6C12.4467 19.84 12.5333 20.08 12.64 20.32C12.7467 20.5533 12.88 20.77 13.04 20.97C13.2 21.1633 13.38 21.32 13.58 21.44C13.78 21.56 14.0033 21.62 14.25 21.62C14.5833 21.62 14.84 21.5367 15.02 21.37C15.2 21.1967 15.3233 20.96 15.39 20.66C15.4567 20.3533 15.49 20 15.49 19.6C15.49 19.14 15.4 18.68 15.22 18.22C15.04 17.76 14.8033 17.2967 14.51 16.83C14.2167 16.3633 13.89 15.9 13.53 15.44C13.03 14.7667 12.6433 14.16 12.37 13.62C12.1033 13.08 11.92 12.58 11.82 12.12C11.72 11.6533 11.67 11.2067 11.67 10.78C11.67 10.14 11.7733 9.59667 11.98 9.15C12.1867 8.70333 12.4633 8.36333 12.81 8.13C13.1633 7.89667 13.55 7.78 13.97 7.78C14.3233 7.78 14.5933 7.84 14.78 7.96C14.9733 8.07333 15.12 8.19 15.22 8.31C15.3267 8.42333 15.4267 8.48 15.52 8.48C15.6 8.48 15.66 8.44667 15.7 8.38C15.74 8.30667 15.76 8.18 15.76 8H16.31V11.02H15.69C15.6767 10.7667 15.6333 10.49 15.56 10.19C15.4867 9.88333 15.38 9.59667 15.24 9.33C15.1 9.06333 14.9267 8.84667 14.72 8.68C14.5133 8.50667 14.2733 8.42 14 8.42C13.62 8.42 13.32 8.56333 13.1 8.85C12.8867 9.13667 12.78 9.55 12.78 10.09C12.78 10.4567 12.8333 10.8267 12.94 11.2C13.0467 11.5733 13.2267 11.9833 13.48 12.43C13.74 12.87 14.09 13.3833 14.53 13.97C14.9367 14.4833 15.2967 15.01 15.61 15.55C15.93 16.0833 16.18 16.6333 16.36 17.2C16.5467 17.76 16.64 18.34 16.64 18.94C16.64 19.5133 16.58 20.01 16.46 20.43C16.3467 20.85 16.1833 21.1967 15.97 21.47C15.7567 21.7367 15.5033 21.9367 15.21 22.07C14.9167 22.2033 14.5933 22.27 14.24 22.27ZM17.3923 27V26.38H18.3923V12.15H17.3923V11.53H19.8823V12.62C19.9223 12.5067 19.999 12.3567 20.1123 12.17C20.2323 11.9833 20.3957 11.8167 20.6023 11.67C20.8157 11.5233 21.069 11.45 21.3623 11.45C21.7557 11.45 22.119 11.63 22.4523 11.99C22.7923 12.3433 23.0623 12.9167 23.2623 13.71C23.469 14.4967 23.5723 15.5333 23.5723 16.82C23.5723 18.14 23.4623 19.1933 23.2423 19.98C23.029 20.7667 22.7423 21.3333 22.3823 21.68C22.0223 22.0267 21.629 22.2 21.2023 22.2C20.929 22.2 20.699 22.1333 20.5123 22C20.3323 21.86 20.1923 21.7033 20.0923 21.53C19.9923 21.35 19.9323 21.2 19.9123 21.08V26.38H20.9223V27H17.3923ZM20.9423 21.37C21.1357 21.37 21.299 21.2633 21.4323 21.05C21.5723 20.83 21.6857 20.5233 21.7723 20.13C21.8657 19.73 21.9323 19.2533 21.9723 18.7C22.019 18.14 22.0423 17.5233 22.0423 16.85C22.0423 16.1833 22.019 15.5767 21.9723 15.03C21.9323 14.4767 21.869 14.0033 21.7823 13.61C21.6957 13.21 21.5857 12.9033 21.4523 12.69C21.319 12.47 21.1623 12.36 20.9823 12.36C20.7557 12.36 20.569 12.47 20.4223 12.69C20.2757 12.91 20.1623 13.18 20.0823 13.5C20.0023 13.8133 19.9457 14.12 19.9123 14.42V18.93C19.9323 19.3167 19.979 19.7 20.0523 20.08C20.1257 20.4533 20.2323 20.7633 20.3723 21.01C20.519 21.25 20.709 21.37 20.9423 21.37ZM27.5317 22.21C27.0451 22.21 26.6284 22.0667 26.2817 21.78C25.9351 21.4867 25.6484 21.09 25.4217 20.59C25.2017 20.0833 25.0384 19.5 24.9317 18.84C24.8317 18.18 24.7817 17.48 24.7817 16.74C24.7817 15.8467 24.8551 15.0667 25.0017 14.4C25.1484 13.7333 25.3517 13.1833 25.6117 12.75C25.8717 12.31 26.1617 11.9833 26.4817 11.77C26.8084 11.55 27.1517 11.44 27.5117 11.44C27.9317 11.44 28.2951 11.5667 28.6017 11.82C28.9084 12.0667 29.1617 12.4033 29.3617 12.83C29.5617 13.25 29.7117 13.73 29.8117 14.27C29.9117 14.8033 29.9617 15.3567 29.9617 15.93C29.9617 16.0633 29.9617 16.1967 29.9617 16.33C29.9617 16.4633 29.9551 16.5967 29.9417 16.73H26.1717V16.11H28.4917C28.4917 15.2567 28.4617 14.53 28.4017 13.93C28.3417 13.3233 28.2384 12.86 28.0917 12.54C27.9517 12.22 27.7584 12.06 27.5117 12.06C27.2717 12.06 27.0617 12.22 26.8817 12.54C26.7017 12.86 26.5617 13.3433 26.4617 13.99C26.3617 14.6367 26.3117 15.46 26.3117 16.46C26.3117 17.18 26.3284 17.85 26.3617 18.47C26.4017 19.09 26.4717 19.63 26.5717 20.09C26.6717 20.5433 26.8117 20.8967 26.9917 21.15C27.1717 21.4033 27.4051 21.53 27.6917 21.53C28.1117 21.53 28.4417 21.41 28.6817 21.17C28.9217 20.93 29.0851 20.69 29.1717 20.45L29.7117 20.76C29.5851 21.14 29.3251 21.4767 28.9317 21.77C28.5384 22.0633 28.0717 22.21 27.5317 22.21ZM34.147 22.21C33.6804 22.21 33.2637 22.06 32.897 21.76C32.537 21.46 32.2304 21.0533 31.977 20.54C31.7237 20.02 31.5304 19.43 31.397 18.77C31.2704 18.1033 31.207 17.4067 31.207 16.68C31.207 15.7933 31.297 15.0233 31.477 14.37C31.657 13.71 31.8937 13.1667 32.187 12.74C32.4804 12.3067 32.8037 11.9833 33.157 11.77C33.5104 11.55 33.8537 11.44 34.187 11.44C34.6337 11.44 35.007 11.57 35.307 11.83C35.6137 12.0833 35.8437 12.4133 35.997 12.82C36.157 13.2267 36.237 13.6533 36.237 14.1C36.237 14.4133 36.1804 14.6533 36.067 14.82C35.9537 14.9867 35.797 15.07 35.597 15.07C35.3904 15.07 35.2237 14.9967 35.097 14.85C34.977 14.6967 34.917 14.5 34.917 14.26C34.917 14.1 34.9437 13.9733 34.997 13.88C35.0504 13.78 35.1004 13.68 35.147 13.58C35.2004 13.4733 35.227 13.34 35.227 13.18C35.227 12.8333 35.1337 12.5633 34.947 12.37C34.767 12.1767 34.5404 12.08 34.267 12.08C33.987 12.08 33.7537 12.2167 33.567 12.49C33.3804 12.7567 33.227 13.1133 33.107 13.56C32.9937 14 32.9104 14.49 32.857 15.03C32.8104 15.5633 32.787 16.0933 32.787 16.62C32.787 17.16 32.8104 17.72 32.857 18.3C32.9037 18.8733 32.9837 19.4067 33.097 19.9C33.217 20.3867 33.3804 20.78 33.587 21.08C33.7937 21.38 34.0537 21.53 34.367 21.53C34.7337 21.53 35.017 21.43 35.217 21.23C35.4237 21.0233 35.5737 20.7733 35.667 20.48L36.147 20.87C36.0204 21.1767 35.7937 21.4767 35.467 21.77C35.147 22.0633 34.707 22.21 34.147 22.21ZM37.0822 22V21.38H38.1222V12.15H37.0822V11.53H39.6222V21.38H40.6822V22H37.0822ZM38.8622 9.64C38.5489 9.64 38.2822 9.53333 38.0622 9.32C37.8489 9.10667 37.7422 8.84667 37.7422 8.54C37.7422 8.23333 37.8489 7.97333 38.0622 7.76C38.2822 7.54 38.5489 7.43 38.8622 7.43C39.1555 7.43 39.4089 7.54 39.6222 7.76C39.8355 7.97333 39.9422 8.23333 39.9422 8.54C39.9422 8.84667 39.8355 9.10667 39.6222 9.32C39.4089 9.53333 39.1555 9.64 38.8622 9.64ZM43.6109 22.21C43.2109 22.21 42.8509 22.1133 42.5309 21.92C42.2176 21.72 41.9676 21.4267 41.7809 21.04C41.6009 20.6533 41.5109 20.1767 41.5109 19.61C41.5109 18.99 41.6309 18.4767 41.8709 18.07C42.1109 17.6567 42.4076 17.31 42.7609 17.03C43.1209 16.7433 43.4776 16.4867 43.8309 16.26C44.1909 16.0267 44.4909 15.7867 44.7309 15.54C44.9709 15.2867 45.0909 14.9833 45.0909 14.63C45.0909 14.13 45.0509 13.6933 44.9709 13.32C44.8976 12.94 44.7743 12.6467 44.6009 12.44C44.4343 12.2267 44.2043 12.12 43.9109 12.12C43.5776 12.12 43.3009 12.23 43.0809 12.45C42.8609 12.67 42.7509 12.92 42.7509 13.2C42.7509 13.3533 42.7743 13.48 42.8209 13.58C42.8676 13.6733 42.9143 13.77 42.9609 13.87C43.0076 13.97 43.0309 14.1033 43.0309 14.27C43.0309 14.51 42.9709 14.7033 42.8509 14.85C42.7376 14.9967 42.5776 15.07 42.3709 15.07C42.1576 15.07 41.9943 14.98 41.8809 14.8C41.7676 14.62 41.7109 14.37 41.7109 14.05C41.7109 13.5567 41.8109 13.1133 42.0109 12.72C42.2176 12.3267 42.5043 12.0167 42.8709 11.79C43.2376 11.5567 43.6643 11.44 44.1509 11.44C44.6376 11.44 45.0609 11.5533 45.4209 11.78C45.7876 12 46.0743 12.3533 46.2809 12.84C46.4876 13.3267 46.5909 13.9667 46.5909 14.76V20.68C46.5909 20.96 46.6209 21.15 46.6809 21.25C46.7476 21.35 46.8409 21.4 46.9609 21.4C47.0676 21.4 47.1576 21.3767 47.2309 21.33C47.3043 21.2833 47.3576 21.24 47.3909 21.2L47.7209 21.72C47.6343 21.82 47.4809 21.9133 47.2609 22C47.0476 22.0867 46.7976 22.13 46.5109 22.13C46.2376 22.13 46.0076 22.0867 45.8209 22C45.6409 21.9133 45.5009 21.7967 45.4009 21.65C45.3076 21.4967 45.2509 21.3267 45.2309 21.14C45.1976 21.26 45.1209 21.4033 45.0009 21.57C44.8809 21.7367 44.7076 21.8833 44.4809 22.01C44.2609 22.1433 43.9709 22.21 43.6109 22.21ZM44.0109 21.38C44.2443 21.38 44.4409 21.29 44.6009 21.11C44.7609 20.9233 44.8809 20.7067 44.9609 20.46C45.0476 20.2067 45.0909 19.9767 45.0909 19.77V15.9C45.0776 16.0867 44.9676 16.2733 44.7609 16.46C44.5543 16.64 44.3176 16.8533 44.0509 17.1C43.7909 17.3467 43.5609 17.66 43.3609 18.04C43.1676 18.4133 43.0709 18.8833 43.0709 19.45C43.0709 20.0767 43.1509 20.5567 43.3109 20.89C43.4709 21.2167 43.7043 21.38 44.0109 21.38ZM48.1873 22V21.38H49.1373V7.62H48.1873V7H50.6273V21.38H51.5873V22H48.1873ZM56.8425 22V21.38H57.9525V8.62H57.2325C56.8925 8.62 56.6392 8.69 56.4725 8.83C56.3058 8.97 56.1958 9.20667 56.1425 9.54C56.0958 9.86667 56.0725 10.3167 56.0725 10.89H55.4525V8H61.9425V10.89H61.3125C61.3125 10.3167 61.2858 9.86667 61.2325 9.54C61.1858 9.20667 61.0792 8.97 60.9125 8.83C60.7525 8.69 60.4992 8.62 60.1525 8.62H59.4425V21.38H60.5925V22H56.8425ZM62.2266 22V21.38H63.2466V12.15H62.2266V11.53H64.6466L64.7066 12.54C64.7266 12.46 64.7966 12.3333 64.9166 12.16C65.0366 11.98 65.1999 11.8167 65.4066 11.67C65.6199 11.5167 65.8699 11.44 66.1566 11.44C66.4966 11.44 66.7732 11.5567 66.9866 11.79C67.1999 12.0167 67.3566 12.3267 67.4566 12.72C67.5566 13.1067 67.6066 13.5433 67.6066 14.03C67.6066 14.37 67.5466 14.63 67.4266 14.81C67.3132 14.9833 67.1499 15.07 66.9366 15.07C66.7432 15.07 66.5866 14.9967 66.4666 14.85C66.3466 14.7033 66.2866 14.4933 66.2866 14.22C66.2866 14.0533 66.3132 13.9167 66.3666 13.81C66.4266 13.6967 66.4832 13.5833 66.5366 13.47C66.5899 13.3567 66.6166 13.2067 66.6166 13.02C66.6166 12.7133 66.5632 12.4933 66.4566 12.36C66.3499 12.22 66.2032 12.15 66.0166 12.15C65.7699 12.15 65.5499 12.26 65.3566 12.48C65.1699 12.7 65.0199 12.9867 64.9066 13.34C64.7999 13.6933 64.7466 14.0667 64.7466 14.46V21.38H65.7766V22H62.2266ZM70.4469 22.21C70.0469 22.21 69.6869 22.1133 69.3669 21.92C69.0535 21.72 68.8035 21.4267 68.6169 21.04C68.4369 20.6533 68.3469 20.1767 68.3469 19.61C68.3469 18.99 68.4669 18.4767 68.7069 18.07C68.9469 17.6567 69.2435 17.31 69.5969 17.03C69.9569 16.7433 70.3135 16.4867 70.6669 16.26C71.0269 16.0267 71.3269 15.7867 71.5669 15.54C71.8069 15.2867 71.9269 14.9833 71.9269 14.63C71.9269 14.13 71.8869 13.6933 71.8069 13.32C71.7335 12.94 71.6102 12.6467 71.4369 12.44C71.2702 12.2267 71.0402 12.12 70.7469 12.12C70.4135 12.12 70.1369 12.23 69.9169 12.45C69.6969 12.67 69.5869 12.92 69.5869 13.2C69.5869 13.3533 69.6102 13.48 69.6569 13.58C69.7035 13.6733 69.7502 13.77 69.7969 13.87C69.8435 13.97 69.8669 14.1033 69.8669 14.27C69.8669 14.51 69.8069 14.7033 69.6869 14.85C69.5735 14.9967 69.4135 15.07 69.2069 15.07C68.9935 15.07 68.8302 14.98 68.7169 14.8C68.6035 14.62 68.5469 14.37 68.5469 14.05C68.5469 13.5567 68.6469 13.1133 68.8469 12.72C69.0535 12.3267 69.3402 12.0167 69.7069 11.79C70.0735 11.5567 70.5002 11.44 70.9869 11.44C71.4735 11.44 71.8969 11.5533 72.2569 11.78C72.6235 12 72.9102 12.3533 73.1169 12.84C73.3235 13.3267 73.4269 13.9667 73.4269 14.76V20.68C73.4269 20.96 73.4569 21.15 73.5169 21.25C73.5835 21.35 73.6769 21.4 73.7969 21.4C73.9035 21.4 73.9935 21.3767 74.0669 21.33C74.1402 21.2833 74.1935 21.24 74.2269 21.2L74.5569 21.72C74.4702 21.82 74.3169 21.9133 74.0969 22C73.8835 22.0867 73.6335 22.13 73.3469 22.13C73.0735 22.13 72.8435 22.0867 72.6569 22C72.4769 21.9133 72.3369 21.7967 72.2369 21.65C72.1435 21.4967 72.0869 21.3267 72.0669 21.14C72.0335 21.26 71.9569 21.4033 71.8369 21.57C71.7169 21.7367 71.5435 21.8833 71.3169 22.01C71.0969 22.1433 70.8069 22.21 70.4469 22.21ZM70.8469 21.38C71.0802 21.38 71.2769 21.29 71.4369 21.11C71.5969 20.9233 71.7169 20.7067 71.7969 20.46C71.8835 20.2067 71.9269 19.9767 71.9269 19.77V15.9C71.9135 16.0867 71.8035 16.2733 71.5969 16.46C71.3902 16.64 71.1535 16.8533 70.8869 17.1C70.6269 17.3467 70.3969 17.66 70.1969 18.04C70.0035 18.4133 69.9069 18.8833 69.9069 19.45C69.9069 20.0767 69.9869 20.5567 70.1469 20.89C70.3069 21.2167 70.5402 21.38 70.8469 21.38ZM76.9255 22.04L75.1355 12.15H74.3055V11.53H77.4455V12.15H76.7355L77.7955 19.1L78.8655 12.15H78.1755V11.53H80.3455V12.15H79.5555L77.8355 22.04H76.9255ZM83.6841 22.21C83.1974 22.21 82.7807 22.0667 82.4341 21.78C82.0874 21.4867 81.8007 21.09 81.5741 20.59C81.3541 20.0833 81.1907 19.5 81.0841 18.84C80.9841 18.18 80.9341 17.48 80.9341 16.74C80.9341 15.8467 81.0074 15.0667 81.1541 14.4C81.3007 13.7333 81.5041 13.1833 81.7641 12.75C82.0241 12.31 82.3141 11.9833 82.6341 11.77C82.9607 11.55 83.3041 11.44 83.6641 11.44C84.0841 11.44 84.4474 11.5667 84.7541 11.82C85.0607 12.0667 85.3141 12.4033 85.5141 12.83C85.7141 13.25 85.8641 13.73 85.9641 14.27C86.0641 14.8033 86.1141 15.3567 86.1141 15.93C86.1141 16.0633 86.1141 16.1967 86.1141 16.33C86.1141 16.4633 86.1074 16.5967 86.0941 16.73H82.3241V16.11H84.6441C84.6441 15.2567 84.6141 14.53 84.5541 13.93C84.4941 13.3233 84.3907 12.86 84.2441 12.54C84.1041 12.22 83.9107 12.06 83.6641 12.06C83.4241 12.06 83.2141 12.22 83.0341 12.54C82.8541 12.86 82.7141 13.3433 82.6141 13.99C82.5141 14.6367 82.4641 15.46 82.4641 16.46C82.4641 17.18 82.4807 17.85 82.5141 18.47C82.5541 19.09 82.6241 19.63 82.7241 20.09C82.8241 20.5433 82.9641 20.8967 83.1441 21.15C83.3241 21.4033 83.5574 21.53 83.8441 21.53C84.2641 21.53 84.5941 21.41 84.8341 21.17C85.0741 20.93 85.2374 20.69 85.3241 20.45L85.8641 20.76C85.7374 21.14 85.4774 21.4767 85.0841 21.77C84.6907 22.0633 84.2241 22.21 83.6841 22.21ZM86.8788 22V21.38H87.8288V7.62H86.8788V7H89.3188V21.38H90.2788V22H86.8788Z" fill="white"/>
</svg>
